<svg width="32" height="32" viewBox="0 0 32 32" fill="none" xmlns="http://www.w3.org/2000/svg">
<path d="M16.4545 31L2.54546 31C1.69193 31 1 30.2538 1 29.3333L1 7.66667C1 6.74619 1.69192 6 2.54545 6L11.178 6C11.5879 6 11.981 6.17559 12.2708 6.48815L17.5473 12.1785C17.8372 12.4911 18 12.915 18 13.357V29.3333C18 30.2538 17.3081 31 16.4545 31Z" stroke="#434242" stroke-width="2" stroke-linecap="round" stroke-linejoin="round"/>
<path d="M12 6L12 2.66667C12 1.74619 12.7733 1 13.7273 1L23.3754 1C23.8336 1 24.2729 1.17559 24.5968 1.48815L30.4941 7.17851C30.818 7.49107 31 7.91499 31 8.35702V24.3333C31 25.2538 30.2267 26 29.2727 26L18.9091 26" stroke="#434242" stroke-width="2" stroke-linecap="round" stroke-linejoin="round"/>
<path d="M18 13L12.4 13C11.6268 13 11 12.3732 11 11.6L11 6" stroke="#434242" stroke-width="2" stroke-linecap="round" stroke-linejoin="round"/>
<path d="M31 9L23.8 9C22.8059 9 22 8.28366 22 7.4L22 1" stroke="#434242" stroke-width="2" stroke-linecap="round" stroke-linejoin="round"/>
</svg>
