<svg width="42" height="33" viewBox="0 0 42 33" fill="none" xmlns="http://www.w3.org/2000/svg">
<path d="M20.9912 4.80876L23.0731 7.9465L23.8673 7.41953L23.0731 7.9465C23.3388 8.34703 23.7399 8.63846 24.203 8.76743L27.8305 9.77778L25.4897 12.7274C25.1908 13.1039 25.0376 13.5754 25.0581 14.0557L25.2181 17.8178L21.6895 16.503C21.2391 16.3352 20.7433 16.3352 20.2929 16.503L16.7643 17.8178L16.9244 14.0557C16.9448 13.5754 16.7916 13.1039 16.4928 12.7274L14.1519 9.77778L17.7794 8.76743C18.2425 8.63846 18.6436 8.34703 18.9093 7.9465L20.9912 4.80876Z" stroke="#434242" stroke-width="2"/>
<circle cx="20.9912" cy="12" r="11" stroke="#434242" stroke-width="2"/>
<path d="M26.2656 21.9828L34.021 29.7383V25.038H38.7213L30.9659 17.2826" stroke="#434242" stroke-width="2"/>
<path d="M10.7559 16.6179L3.00044 24.3733H7.70069V29.0736L15.4561 21.3182" stroke="#434242" stroke-width="2"/>
</svg>
