<svg width="31" height="31" viewBox="0 0 31 31" fill="none" xmlns="http://www.w3.org/2000/svg">
<path d="M17.3333 10.1638C17.3333 13.4254 14.7699 16.021 11.6667 16.021C8.56342 16.021 6 13.4254 6 10.1638C6 6.90229 8.56342 4.3067 11.6667 4.3067C14.7699 4.3067 17.3333 6.90229 17.3333 10.1638Z" stroke="#434242" stroke-width="2"/>
<path d="M21.667 29.021C21.667 26.2931 20.6134 23.6769 18.7381 21.7479C16.8627 19.819 14.3192 18.7353 11.667 18.7353C9.01483 18.7353 6.47129 19.819 4.59593 21.7479C2.72056 23.6769 1.66699 26.2931 1.66699 29.021" stroke="#434242" stroke-width="2" stroke-linecap="round"/>
<path d="M21.9806 4.81996C22.6629 5.52173 23.2041 6.35486 23.5733 7.27177C23.9426 8.18868 24.1326 9.17142 24.1326 10.1639C24.1326 11.1563 23.9426 12.1391 23.5733 13.056C23.2041 13.9729 22.6629 14.806 21.9806 15.5078" stroke="#434242" stroke-width="2"/>
<path d="M25.3753 1.08465C26.5344 2.27695 27.4539 3.69242 28.0813 5.25023C28.7086 6.80805 29.0315 8.47771 29.0315 10.1639C29.0315 11.85 28.7086 13.5197 28.0813 15.0775C27.4539 16.6353 26.5344 18.0508 25.3753 19.2431" stroke="#434242" stroke-width="2"/>
</svg>
