<svg width="32" height="30" viewBox="0 0 32 30" fill="none" xmlns="http://www.w3.org/2000/svg">
<path d="M29.3333 3.33331H2.66667C1.74619 3.33331 1 4.07951 1 4.99998V25C1 25.9205 1.74619 26.6666 2.66667 26.6666H29.3333C30.2538 26.6666 31 25.9205 31 25V4.99998C31 4.07951 30.2538 3.33331 29.3333 3.33331Z" stroke="#434242" stroke-width="2" stroke-linecap="round" stroke-linejoin="round"/>
<path d="M27 19.8333C27 20.6617 26.3284 21.3333 25.5 21.3333C24.6716 21.3333 24 20.6617 24 19.8333C24 19.0049 24.6716 18.3333 25.5 18.3333C26.3284 18.3333 27 19.0049 27 19.8333Z" stroke="#434242" stroke-width="2" stroke-linecap="round" stroke-linejoin="round"/>
<path d="M21.5 21.3333C20.6716 21.3333 20 20.6617 20 19.8333C20 19.0049 20.6716 18.3333 21.5 18.3333" stroke="#434242" stroke-width="2" stroke-linecap="round" stroke-linejoin="round"/>
<path d="M7.66699 20H14.3337" stroke="#434242" stroke-width="2" stroke-linecap="round" stroke-linejoin="round"/>
<path d="M1 13.3333H31" stroke="#434242" stroke-width="2" stroke-linecap="round" stroke-linejoin="round"/>
<path d="M1 10H31" stroke="#434242" stroke-width="2" stroke-linecap="round" stroke-linejoin="round"/>
</svg>
