<svg width="163" height="58" viewBox="0 0 163 58" fill="none" xmlns="http://www.w3.org/2000/svg">
<path d="M75.1525 37.7309C75.1525 37.6951 75.1525 37.6569 75.1644 37.621C72.9825 29.0889 65.4373 20.5568 55.8695 14.8154C55.8457 14.9252 55.8195 15.0374 55.7981 15.1473C53.3973 28.1722 61.9442 37.8622 75.1525 37.7309Z" fill="url(#paint0_radial_757_13881)"/>
<path d="M1.30394 53.6445C1.56477 53.8222 1.83746 53.9817 2.12009 54.1219C2.55477 54.3443 3.00486 54.535 3.46685 54.6925C4.06417 54.8968 4.67578 55.0564 5.29665 55.1699C6.03431 55.3066 6.78321 55.3729 7.53333 55.3681C8.96099 55.3681 9.98654 55.1572 10.61 54.7355C11.0307 54.4298 11.3321 53.9866 11.4624 53.482C11.5927 52.9775 11.5437 52.4432 11.3238 51.971C11.1754 51.6967 10.9632 51.4625 10.7051 51.2882C10.4017 51.0849 10.0685 50.9303 9.71766 50.8299C9.28319 50.7039 8.84135 50.605 8.39469 50.5339L5.67736 50.0373C4.99317 49.9293 4.32018 49.7591 3.66673 49.5288C3.05449 49.3136 2.47962 49.0034 1.96304 48.6097C1.47086 48.2346 1.06506 47.7575 0.77332 47.2108C0.465149 46.5921 0.31472 45.9064 0.335503 45.215C0.333031 44.535 0.463172 43.8611 0.718594 43.2312C0.982927 42.5904 1.40446 42.027 1.94401 41.5935C2.5753 41.0927 3.29667 40.7182 4.06885 40.4906C5.07972 40.1973 6.12912 40.0596 7.18117 40.0824C7.95786 40.074 8.73411 40.1235 9.50351 40.2304C10.0721 40.3102 10.6343 40.4307 11.1858 40.5909C11.5689 40.6995 11.941 40.8441 12.297 41.023C12.5778 41.1734 12.7729 41.2879 12.9156 41.3715C13.1598 41.5343 13.3766 41.735 13.5581 41.9659C13.7185 42.1804 13.8023 42.4427 13.796 42.7108C13.7957 43.09 13.6739 43.4591 13.4486 43.7636C13.2748 44.0262 13.0575 44.2571 12.8062 44.4463C12.5935 44.2298 12.3535 44.042 12.0923 43.8877C11.7164 43.6537 11.3178 43.4586 10.9026 43.3052C10.3681 43.1025 9.81827 42.9428 9.25843 42.8277C8.5835 42.6901 7.89605 42.6237 7.20734 42.6296C6.58112 42.6183 5.95555 42.6759 5.34186 42.8015C4.91922 42.8853 4.5158 43.0472 4.15213 43.2789C3.87387 43.4623 3.65154 43.7192 3.50968 44.0214C3.3745 44.3304 3.30715 44.6651 3.31219 45.0026C3.29925 45.2953 3.3611 45.5864 3.49186 45.8484C3.62263 46.1104 3.81797 46.3344 4.05934 46.4994C4.54633 46.8559 5.35772 47.1415 6.49351 47.3564L9.26318 47.8768C11.0573 48.2079 12.4056 48.749 13.3082 49.5002C14.2108 50.2514 14.6637 51.3384 14.6669 52.7612C14.6765 53.5047 14.5136 54.2403 14.191 54.9097C13.8671 55.559 13.3971 56.1238 12.8181 56.5593C12.1444 57.0576 11.3807 57.42 10.5695 57.6264C9.55955 57.8883 8.51925 58.0135 7.47622 57.9989C6.56498 58.005 5.65519 57.9251 4.75889 57.7601C4.01261 57.6228 3.27708 57.4321 2.5579 57.1896C2.00563 57.0043 1.46862 56.776 0.951778 56.5068C0.523478 56.2745 0.206219 56.093 0 55.9625L1.30394 53.6445Z" fill="url(#paint1_radial_757_13881)"/>
<path d="M25.1032 40.0823C26.326 40.0709 27.5389 40.3021 28.6724 40.7627C29.7402 41.2003 30.7137 41.8407 31.5396 42.6486C32.356 43.4583 33.0031 44.4233 33.4431 45.4871C34.3663 47.7597 34.3663 50.3046 33.4431 52.5773C33.0032 53.6418 32.356 54.6075 31.5396 55.4181C30.713 56.2245 29.7396 56.864 28.6724 57.3017C26.3792 58.2107 23.8272 58.2107 21.534 57.3017C20.4634 56.865 19.4867 56.2255 18.6573 55.4181C17.8375 54.6079 17.1863 53.6422 16.7418 52.5773C15.8217 50.304 15.8217 47.7603 16.7418 45.4871C17.1864 44.4228 17.8375 43.458 18.6573 42.6486C19.4832 41.8407 20.4567 41.2003 21.5245 40.7627C22.6609 40.3009 23.8772 40.0697 25.1032 40.0823ZM25.1032 55.2797C25.9207 55.2875 26.731 55.1249 27.4826 54.8022C28.1908 54.501 28.8303 54.0583 29.3624 53.5011C29.9 52.93 30.3232 52.2605 30.6092 51.5293C30.9208 50.7318 31.0759 49.8815 31.0661 49.025C31.075 48.1647 30.92 47.3107 30.6092 46.5088C30.3251 45.773 29.9017 45.0994 29.3624 44.525C28.8317 43.9692 28.1915 43.5302 27.4826 43.2359C25.9597 42.6248 24.2609 42.6248 22.738 43.2359C22.0222 43.5303 21.3743 43.9691 20.8345 44.525C20.2904 45.0957 19.8664 45.7703 19.5876 46.5088C19.2843 47.3124 19.1334 48.1658 19.1427 49.025C19.1325 49.8804 19.2834 50.7301 19.5876 51.5293C19.8682 52.2633 20.2921 52.9337 20.8345 53.5011C21.3757 54.0584 22.023 54.5008 22.738 54.8022C23.4853 55.1229 24.2905 55.2855 25.1032 55.2797Z" fill="url(#paint2_radial_757_13881)"/>
<path d="M35.8774 41.8919C35.862 41.7004 35.8908 41.5078 35.9618 41.3293C36.0328 41.1508 36.144 40.9912 36.2867 40.863C36.6103 40.6227 37.0079 40.5043 37.4098 40.5288C37.711 40.5241 38.0112 40.566 38.2997 40.6529C38.479 40.7007 38.6529 40.7671 38.8184 40.8511V49.6529C38.804 50.4814 38.8838 51.3087 39.0564 52.119C39.1916 52.7586 39.4663 53.3603 39.8606 53.8808C40.2458 54.3626 40.754 54.7306 41.3311 54.9455C42.7919 55.4261 44.3675 55.4261 45.8283 54.9455C46.4051 54.73 46.9131 54.3621 47.2988 53.8808C47.6924 53.3601 47.9662 52.7584 48.1006 52.119C48.2744 51.3089 48.3542 50.4814 48.3386 49.6529V41.8919C48.3231 41.7004 48.352 41.5078 48.423 41.3293C48.494 41.1508 48.6052 40.9912 48.7479 40.863C49.0716 40.623 49.4691 40.5047 49.871 40.5288C50.1722 40.5241 50.4723 40.566 50.7609 40.6529C50.94 40.7012 51.1138 40.7675 51.2796 40.8511V49.9012C51.2796 52.5129 50.6371 54.5126 49.3522 55.9004C48.0673 57.2882 46.14 57.9829 43.5702 57.9845C41.0004 57.9845 39.0722 57.2898 37.7858 55.9004C36.4993 54.5111 35.8568 52.5113 35.8584 49.9012L35.8774 41.8919Z" fill="url(#paint3_radial_757_13881)"/>
<path d="M54.7343 41.8919C54.7191 41.6993 54.7494 41.5058 54.8225 41.327C54.8957 41.1483 55.0097 40.9894 55.1554 40.863C55.4851 40.624 55.8867 40.506 56.2928 40.5288C56.5854 40.5255 56.8767 40.5674 57.1565 40.6529C57.4207 40.7341 57.592 40.7914 57.6753 40.8248V54.8333H66.3983V57.5381H54.739L54.7343 41.8919Z" fill="url(#paint4_radial_757_13881)"/>
<path d="M73.5419 41.8919C73.5267 41.6993 73.557 41.5058 73.6301 41.327C73.7033 41.1483 73.8173 40.9893 73.9631 40.863C74.2917 40.6236 74.6926 40.5055 75.0981 40.5288C75.3914 40.5252 75.6835 40.5671 75.9642 40.6529C76.2259 40.7341 76.3996 40.7914 76.4829 40.8248V57.5357H73.5419V41.8919Z" fill="url(#paint5_radial_757_13881)"/>
<path d="M80.585 42.1139C80.585 41.5362 80.7618 41.1271 81.1156 40.8868C81.4853 40.6433 81.9202 40.5184 82.3624 40.5287C82.7535 40.5144 83.1426 40.5904 83.4998 40.7508C83.714 40.852 83.9208 40.9684 84.1184 41.0993C84.2826 41.2974 84.5515 41.6484 84.9203 42.1521C85.2891 42.6558 85.7198 43.2502 86.2076 43.9378C86.6954 44.6253 87.2117 45.3701 87.7637 46.1699C88.3158 46.9696 88.8631 47.7669 89.4079 48.5571C89.9528 49.3473 90.4644 50.1184 90.9522 50.8632C91.44 51.6081 91.8612 52.2598 92.2252 52.8208V41.8919C92.2096 41.7016 92.237 41.5102 92.3054 41.3321C92.3738 41.1539 92.4814 40.9936 92.6202 40.863C92.9387 40.6216 93.333 40.503 93.7314 40.5287C94.0287 40.524 94.325 40.5659 94.6094 40.6529C94.7844 40.7023 94.9541 40.7686 95.1162 40.851V57.5381H92.1491C91.854 57.0749 91.4995 56.5235 91.0878 55.8885C90.6762 55.2534 90.2193 54.5587 89.7149 53.8044L88.1373 51.4625C87.5916 50.6524 87.0475 49.8463 86.505 49.0441C85.9625 48.242 85.4311 47.4733 84.9108 46.738C84.3921 46.0028 83.9162 45.3375 83.4831 44.7423V57.5381H80.585V42.1139Z" fill="url(#paint6_radial_757_13881)"/>
<path d="M103.665 57.5381C103.253 56.7089 102.833 55.8336 102.406 54.9121C101.98 53.9906 101.559 53.0731 101.145 52.1595C100.733 51.2428 100.342 50.35 99.9723 49.481C99.6027 48.6121 99.2648 47.8163 98.9586 47.0937C98.6541 46.3648 98.3947 45.741 98.1806 45.2221C97.9664 44.7033 97.8078 44.3189 97.7047 44.0691C97.5238 43.6394 97.3715 43.2415 97.2478 42.8754C97.13 42.5368 97.0674 42.1813 97.0622 41.8226C97.0532 41.649 97.0806 41.4754 97.1424 41.313C97.2043 41.1506 97.2994 41.003 97.4215 40.8797C97.7208 40.6271 98.1071 40.5028 98.497 40.5335C98.816 40.523 99.1342 40.5732 99.4345 40.6815C99.6725 40.7818 99.839 40.8463 99.9104 40.8797C100.205 41.7566 100.572 42.7608 101.01 43.8924C101.448 45.024 101.908 46.2017 102.392 47.4256C102.879 48.6479 103.378 49.867 103.889 51.0829C104.4 52.2988 104.886 53.4272 105.347 54.468C105.709 53.6731 106.109 52.7492 106.537 51.6892C106.965 50.6293 107.415 49.5407 107.86 48.4163C108.305 47.2919 108.741 46.1818 109.169 45.0741C109.597 43.9664 109.985 42.9852 110.332 42.1091C110.488 41.6512 110.74 41.2325 111.072 40.8821C111.418 40.617 111.85 40.4895 112.284 40.524C112.656 40.5132 113.026 40.5952 113.359 40.7627C113.647 40.9203 113.835 41.0229 113.916 41.073C113.783 41.4216 113.572 41.9587 113.285 42.6845C112.998 43.4102 112.656 44.2489 112.26 45.2006C111.865 46.1555 111.436 47.1805 110.975 48.2754C110.513 49.3704 110.044 50.4741 109.566 51.5866C109.09 52.7007 108.625 53.767 108.169 54.7855C107.715 55.8097 107.301 56.7264 106.92 57.5381H103.665Z" fill="url(#paint7_radial_757_13881)"/>
<path d="M115.848 42.2142C115.848 41.089 116.45 40.5272 117.654 40.5288H127.143C128.131 40.5288 128.625 40.9752 128.625 41.8681C128.629 42.1596 128.579 42.4493 128.478 42.7227C128.415 42.8971 128.34 43.0669 128.254 43.2312H118.831V47.4949H126.788C127.761 47.4949 128.247 47.9413 128.247 48.8341C128.251 49.1247 128.205 49.4138 128.111 49.6888C128.056 49.8687 127.976 50.0399 127.873 50.1973H118.831V54.8334H128.471V57.5381H115.848V42.2142Z" fill="url(#paint8_radial_757_13881)"/>
<path d="M132.157 53.6444C132.417 53.8227 132.69 53.9822 132.973 54.1219C133.408 54.3443 133.858 54.535 134.32 54.6924C134.916 54.8965 135.527 55.0561 136.147 55.1699C136.886 55.3065 137.635 55.3728 138.386 55.368C139.814 55.368 140.839 55.1572 141.463 54.7354C141.758 54.5426 141.999 54.2764 142.161 53.9626C142.323 53.6488 142.401 53.2982 142.388 52.945C142.396 52.6144 142.324 52.287 142.179 51.99C142.03 51.7163 141.818 51.4822 141.56 51.3073C141.257 51.104 140.924 50.9493 140.573 50.8489C140.138 50.7229 139.697 50.6241 139.25 50.5529L136.53 50.0564C135.849 49.9438 135.179 49.7697 134.529 49.5359C133.916 49.3207 133.34 49.0106 132.823 48.6168C132.331 48.2412 131.926 47.7642 131.633 47.2179C131.322 46.6002 131.169 45.9142 131.188 45.2221C131.186 44.5421 131.316 43.8682 131.571 43.2383C131.836 42.5981 132.256 42.0349 132.794 41.6006C133.426 41.1002 134.147 40.7258 134.919 40.4977C135.931 40.2042 136.981 40.0666 138.034 40.0895C138.811 40.0812 139.587 40.1307 140.356 40.2375C140.925 40.3176 141.487 40.438 142.039 40.598C142.422 40.707 142.794 40.8517 143.15 41.0301C143.428 41.1805 143.626 41.2951 143.768 41.3786C144.012 41.5427 144.228 41.7432 144.411 41.9731C144.571 42.1875 144.655 42.4498 144.649 42.7179C144.649 43.0971 144.527 43.4662 144.301 43.7707C144.128 44.0333 143.91 44.2642 143.659 44.4534C143.446 44.2369 143.206 44.0491 142.945 43.8948C142.569 43.6605 142.171 43.4653 141.755 43.3123C141.222 43.1092 140.673 42.9496 140.114 42.8349C139.439 42.6972 138.751 42.6308 138.063 42.6367C137.436 42.6254 136.811 42.6831 136.197 42.8086C135.774 42.892 135.371 43.0539 135.007 43.2861C134.729 43.4694 134.507 43.7263 134.365 44.0285C134.23 44.3376 134.162 44.6722 134.167 45.0097C134.156 45.2967 134.217 45.5818 134.345 45.8391C134.472 46.0964 134.661 46.3177 134.896 46.4826C135.371 46.8383 136.195 47.1248 137.33 47.3396L140.097 47.8601C141.893 48.1911 143.241 48.7322 144.142 49.4834C145.043 50.2346 145.496 51.3216 145.501 52.7444C145.51 53.4879 145.347 54.2235 145.025 54.893C144.701 55.5423 144.231 56.107 143.652 56.5426C142.978 57.0403 142.214 57.4027 141.403 57.6097C140.393 57.8715 139.353 57.9968 138.31 57.9821C137.398 57.9882 136.487 57.9083 135.59 57.7434C134.845 57.6058 134.11 57.4151 133.392 57.1728C132.839 56.9875 132.302 56.7593 131.786 56.4901C131.357 56.2577 131.044 56.0763 130.846 55.9458L132.157 53.6444Z" fill="url(#paint9_radial_757_13881)"/>
<path d="M153.365 43.2312H148.423C147.449 43.2312 146.962 42.7848 146.964 41.8919C146.96 41.6004 147.01 41.3106 147.112 41.0373C147.173 40.8627 147.247 40.6928 147.333 40.5288H161.445C162.416 40.5288 162.904 40.9752 162.904 41.8681C162.908 42.1589 162.861 42.4481 162.766 42.7227C162.711 42.9027 162.631 43.0739 162.528 43.2312H156.306V57.5381H153.365V43.2312Z" fill="url(#paint10_radial_757_13881)"/>
<path d="M78.0765 26.9714C76.399 30.7409 75.4591 34.3385 75.1641 37.621C75.1641 37.6568 75.1807 37.695 75.1902 37.7309C75.9517 37.7309 76.7297 37.6831 77.5221 37.6067C92.0629 36.2245 105.914 23.9276 108.455 10.1531C109.138 6.45041 108.931 3.01513 107.991 0C96.2388 3.2085 83.8181 14.0634 78.0765 26.9714Z" fill="url(#paint11_radial_757_13881)"/>
<defs>
<radialGradient id="paint0_radial_757_13881" cx="0" cy="0" r="1" gradientUnits="userSpaceOnUse" gradientTransform="translate(74.6029 44.155) scale(42.7372 42.8778)">
<stop offset="0.17" stop-color="#E63812"/>
<stop offset="0.74" stop-color="#F59C00"/>
</radialGradient>
<radialGradient id="paint1_radial_757_13881" cx="0" cy="0" r="1" gradientUnits="userSpaceOnUse" gradientTransform="translate(74.548 41.6413) scale(46.3659 46.5184)">
<stop offset="0.17" stop-color="#E63812"/>
<stop offset="1" stop-color="#591B20"/>
</radialGradient>
<radialGradient id="paint2_radial_757_13881" cx="0" cy="0" r="1" gradientUnits="userSpaceOnUse" gradientTransform="translate(74.5481 41.6412) scale(46.3659 46.5184)">
<stop offset="0.17" stop-color="#E63812"/>
<stop offset="1" stop-color="#591B20"/>
</radialGradient>
<radialGradient id="paint3_radial_757_13881" cx="0" cy="0" r="1" gradientUnits="userSpaceOnUse" gradientTransform="translate(74.5482 41.6413) scale(46.3659 46.5184)">
<stop offset="0.17" stop-color="#E63812"/>
<stop offset="1" stop-color="#591B20"/>
</radialGradient>
<radialGradient id="paint4_radial_757_13881" cx="0" cy="0" r="1" gradientUnits="userSpaceOnUse" gradientTransform="translate(74.5479 41.6413) scale(46.3659 46.5184)">
<stop offset="0.17" stop-color="#E63812"/>
<stop offset="1" stop-color="#591B20"/>
</radialGradient>
<radialGradient id="paint5_radial_757_13881" cx="0" cy="0" r="1" gradientUnits="userSpaceOnUse" gradientTransform="translate(74.5484 41.6412) scale(46.3658 46.5184)">
<stop offset="0.17" stop-color="#E63812"/>
<stop offset="1" stop-color="#591B20"/>
</radialGradient>
<radialGradient id="paint6_radial_757_13881" cx="0" cy="0" r="1" gradientUnits="userSpaceOnUse" gradientTransform="translate(74.5483 41.6412) scale(46.3659 46.5184)">
<stop offset="0.17" stop-color="#E63812"/>
<stop offset="1" stop-color="#591B20"/>
</radialGradient>
<radialGradient id="paint7_radial_757_13881" cx="0" cy="0" r="1" gradientUnits="userSpaceOnUse" gradientTransform="translate(74.5479 41.6412) scale(46.3659 46.5184)">
<stop offset="0.17" stop-color="#E63812"/>
<stop offset="1" stop-color="#591B20"/>
</radialGradient>
<radialGradient id="paint8_radial_757_13881" cx="0" cy="0" r="1" gradientUnits="userSpaceOnUse" gradientTransform="translate(74.5476 41.6413) scale(46.3658 46.5184)">
<stop offset="0.17" stop-color="#E63812"/>
<stop offset="1" stop-color="#591B20"/>
</radialGradient>
<radialGradient id="paint9_radial_757_13881" cx="0" cy="0" r="1" gradientUnits="userSpaceOnUse" gradientTransform="translate(74.548 41.6412) scale(46.3659 46.5184)">
<stop offset="0.17" stop-color="#E63812"/>
<stop offset="1" stop-color="#591B20"/>
</radialGradient>
<radialGradient id="paint10_radial_757_13881" cx="0" cy="0" r="1" gradientUnits="userSpaceOnUse" gradientTransform="translate(74.548 41.6413) scale(46.3659 46.5184)">
<stop offset="0.17" stop-color="#E63812"/>
<stop offset="1" stop-color="#591B20"/>
</radialGradient>
<radialGradient id="paint11_radial_757_13881" cx="0" cy="0" r="1" gradientUnits="userSpaceOnUse" gradientTransform="translate(74.6025 44.155) scale(42.7372 42.8778)">
<stop offset="0.17" stop-color="#E63812"/>
<stop offset="0.74" stop-color="#F59C00"/>
</radialGradient>
</defs>
</svg>
