<svg width="10" height="13" viewBox="0 0 10 13" fill="none" xmlns="http://www.w3.org/2000/svg">
<path d="M3.20711 0.792893C2.81658 0.402369 2.18342 0.402369 1.79289 0.792893C1.40237 1.18342 1.40237 1.81658 1.79289 2.20711L3.20711 0.792893ZM7.5 6.5L8.20711 7.20711C8.39464 7.01957 8.5 6.76522 8.5 6.5C8.5 6.23478 8.39464 5.98043 8.20711 5.79289L7.5 6.5ZM1.79289 10.7929C1.40237 11.1834 1.40237 11.8166 1.79289 12.2071C2.18342 12.5976 2.81658 12.5976 3.20711 12.2071L1.79289 10.7929ZM1.79289 2.20711L6.79289 7.20711L8.20711 5.79289L3.20711 0.792893L1.79289 2.20711ZM6.79289 5.79289L1.79289 10.7929L3.20711 12.2071L8.20711 7.20711L6.79289 5.79289Z" fill="#434242"/>
</svg>
